<svg width="50" height="50" viewBox="0 0 50 50" fill="none" xmlns="http://www.w3.org/2000/svg">
<rect width="50" height="50" rx="19" fill="#F03E3D"/>
<path d="M36 24.8571C36 20.9062 31.5246 17.7143 26 17.7143C20.4754 17.7143 16 20.9174 16 24.8571C16 27.1228 17.4732 29.1429 19.7723 30.4487C19.2478 32.3125 18.4442 32.9821 17.7411 33.7746C17.5737 33.9754 17.3839 34.1429 17.4397 34.4219C17.4397 34.4219 17.4397 34.4219 17.4397 34.433C17.4955 34.7009 17.7299 34.8795 17.9754 34.8571C18.4107 34.8013 18.846 34.7232 19.2478 34.6116C21.1786 34.1205 22.9196 33.2054 24.3817 31.9107C24.9063 31.9665 25.4531 32 26 32C31.5246 32 36 28.808 36 24.8571Z" fill="white"/>
</svg>
