<svg width="50" height="50" viewBox="0 0 50 50" fill="none" xmlns="http://www.w3.org/2000/svg">
<rect width="50" height="50" rx="19" fill="#4DADF7"/>
<path d="M22.1429 32C22.1429 31.2188 21.4955 30.5714 20.7143 30.5714C19.933 30.5714 19.2857 31.2188 19.2857 32C19.2857 32.7812 19.933 33.4286 20.7143 33.4286C21.4955 33.4286 22.1429 32.7812 22.1429 32ZM32.1429 32C32.1429 31.2188 31.4955 30.5714 30.7143 30.5714C29.933 30.5714 29.2857 31.2188 29.2857 32C29.2857 32.7812 29.933 33.4286 30.7143 33.4286C31.4955 33.4286 32.1429 32.7812 32.1429 32ZM33.5714 19.8571C33.5714 19.4665 33.2478 19.1429 32.8571 19.1429H19.4531C19.3415 18.6071 19.3192 17.7143 18.5714 17.7143H15.7143C15.3237 17.7143 15 18.0379 15 18.4286C15 18.8192 15.3237 19.1429 15.7143 19.1429H17.9911L19.9665 28.3281C19.7879 28.6741 19.2857 29.5112 19.2857 29.8571C19.2857 30.2478 19.6094 30.5714 20 30.5714H31.4286C31.8192 30.5714 32.1429 30.2478 32.1429 29.8571C32.1429 29.4665 31.8192 29.1429 31.4286 29.1429H21.1607C21.2723 28.9196 21.4286 28.6853 21.4286 28.4286C21.4286 28.1607 21.3393 27.904 21.2835 27.6473L32.9353 26.2857C33.2924 26.2411 33.5714 25.9286 33.5714 25.5714V19.8571Z" fill="white"/>
</svg>
